<?xml version="1.0" encoding="UTF-8" standalone="no"?>
<!-- Created with Inkscape (http://www.inkscape.org/) -->
<svg xmlns:ns="http://creativecommons.org/ns#" xmlns:dc="http://purl.org/dc/elements/1.1/" xmlns:cc="http://web.resource.org/cc/" xmlns:rdf="http://www.w3.org/1999/02/22-rdf-syntax-ns#" xmlns:svg="http://www.w3.org/2000/svg" xmlns="http://www.w3.org/2000/svg" xmlns:sodipodi="http://sodipodi.sourceforge.net/DTD/sodipodi-0.dtd" xmlns:inkscape="http://www.inkscape.org/namespaces/inkscape" height="151.83951" id="svg1279" inkscape:version="0.45.1" sodipodi:docbase="C:\Documents and Settings\andy\Desktop" sodipodi:docname="Green dot.svg" sodipodi:version="0.32" width="149.13481" inkscape:output_extension="org.inkscape.output.svg.inkscape" version="1.0">
  <metadata id="metadata3">
    <rdf:RDF>
      <ns:Work rdf:about="">
        <dc:title>recycle</dc:title>
        <dc:description>Official recycle logo for European products</dc:description>
        <dc:subject>
          <rdf:Bag>
            <rdf:li>logo</rdf:li>
            <rdf:li>symbol</rdf:li>
            <rdf:li>circle</rdf:li>
          </rdf:Bag>
        </dc:subject>
        <dc:publisher>
          <ns:Agent rdf:about="http://www.openclipart.org">
            <dc:title>Open Clip Art Library</dc:title>
          </ns:Agent>
        </dc:publisher>
        <dc:creator>
          <ns:Agent>
            <dc:title>Anthony Liekens</dc:title>
          </ns:Agent>
        </dc:creator>
        <dc:rights>
          <ns:Agent>
            <dc:title>Anthony Liekens</dc:title>
          </ns:Agent>
        </dc:rights>
        <dc:date/>
        <dc:format>image/svg+xml</dc:format>
        <dc:type rdf:resource="http://purl.org/dc/dcmitype/StillImage"/>
        <ns:license rdf:resource="http://web.resource.org/cc/PublicDomain"/>
        <dc:language>en</dc:language>
      </ns:Work>
      <ns:License rdf:about="http://web.resource.org/cc/PublicDomain">
        <ns:permits rdf:resource="http://web.resource.org/cc/Reproduction"/>
        <ns:permits rdf:resource="http://web.resource.org/cc/Distribution"/>
        <ns:permits rdf:resource="http://web.resource.org/cc/DerivativeWorks"/>
      </ns:License>
      <cc:Work rdf:about="">
        <dc:format>image/svg+xml</dc:format>
        <dc:type rdf:resource="http://purl.org/dc/dcmitype/StillImage"/>
      </cc:Work>
    </rdf:RDF>
  </metadata>
  <defs id="defs1282">
    <inkscape:perspective sodipodi:type="inkscape:persp3d" inkscape:vp_x="0 : 93.75 : 1" inkscape:vp_y="0 : 1000 : 0" inkscape:vp_z="187.5 : 93.75 : 1" inkscape:persp3d-origin="93.75 : 62.5 : 1" id="perspective8"/>
  </defs>
  <sodipodi:namedview bordercolor="#666666" borderopacity="1.0" id="base" inkscape:current-layer="svg1279" inkscape:cx="89.378782" inkscape:cy="92.122774" inkscape:pageopacity="0.0" inkscape:pageshadow="2" inkscape:window-height="579" inkscape:window-width="748" inkscape:window-x="38" inkscape:window-y="77" inkscape:zoom="1.1854622" pagecolor="#ffffff" showborder="true" showgrid="false"/>
  <path d="M 70.802515,151.72215 C 37.254892,149.44834 11.107687,128.25993 2.5924652,96.44807 C -1.1403578,82.50269 -0.82093077,65.324143 3.4138592,52.274077 C 10.151202,31.512067 26.984274,13.320722 46.709288,5.4851093 C 82.205943,-8.6156713 120.2573,5.1404233 139.56326,39.053115 C 146.90261,51.945368 149.91786,65.370588 148.96326,80.906134 C 148.2033,93.27413 146.33405,100.45935 141.01771,111.44807 C 137.59558,118.52154 135.30243,121.54243 127.35397,129.44807 C 120.66464,136.10137 115.70495,140.05184 110.80252,142.63158 C 98.774913,148.9607 82.989483,152.54816 70.802515,151.72215 z M 75.302515,132.44822 L 75.802515,124.96721 L 81.302513,124.23036 C 94.055983,122.52174 105.93154,116.70078 115.76473,107.33825 C 127.62303,96.04755 133.97176,82.55797 135.01647,66.432828 C 135.75482,55.036244 134.04107,45.828477 129.29599,35.697408 C 122.02202,20.16698 104.42099,6.4362433 87.932283,3.4291763 C 78.366495,1.6846483 61.652705,2.6638173 53.302515,5.4579443 C 32.344542,12.470868 14.630701,28.919739 7.3218532,48.155062 C -1.3924838,71.089333 1.5494492,98.24466 14.954873,118.6112 C 19.201492,125.06298 25.995797,132.08812 27.009028,131.07489 C 27.282094,130.80182 25.8748,127.93644 23.881707,124.70738 C 17.621007,114.56424 13.302515,100.12728 13.302515,89.34054 C 13.302515,83.36248 15.787567,70.824761 18.26452,64.305951 C 24.968861,46.66156 43.25233,31.677748 63.929225,26.882456 C 67.699935,26.007969 71.351495,24.822388 72.043795,24.247833 C 72.812395,23.609949 73.302515,20.74288 73.302515,16.884647 C 73.302515,13.409451 73.747325,10.291199 74.290985,9.9551993 C 75.672195,9.1015673 83.056663,12.526644 89.972383,17.228566 C 97.100773,22.07508 103.92396,29.256181 109.36163,37.634887 C 112.6688,42.730796 113.35878,44.578854 112.94005,47.219489 C 111.51466,56.208622 95.156833,75.14178 83.499773,81.294774 C 80.033265,83.12451 76.614095,84.39787 75.901605,84.12447 C 75.139215,83.83191 74.335395,81.036744 73.948115,77.331496 C 73.586195,73.868771 72.897575,70.643131 72.417845,70.163409 C 71.195695,68.941255 62.759245,73.410774 56.194688,78.758226 C 47.11753,86.15242 38.302515,99.10812 38.302515,105.05489 C 38.302515,114.12201 52.341232,130.2396 66.802515,137.77522 C 74.135145,141.59617 74.715405,141.23251 75.302515,132.44822 z" id="path1298" style="fill:#01a43b;fill-opacity:1"/>
</svg>